<svg width="920" height="520" viewBox="0 0 920 520" fill="none" xmlns="http://www.w3.org/2000/svg">
  <defs>
    <linearGradient id="road" x1="24" y1="410" x2="875" y2="410" gradientUnits="userSpaceOnUse">
      <stop stop-color="#173153"/>
      <stop offset="1" stop-color="#0E223C"/>
    </linearGradient>
    <linearGradient id="glass" x1="0" y1="0" x2="1" y2="1">
      <stop stop-color="#5EA3FF" stop-opacity=".30"/>
      <stop offset="1" stop-color="#225A9F" stop-opacity=".06"/>
    </linearGradient>
    <linearGradient id="shield" x1="639" y1="83" x2="785" y2="239" gradientUnits="userSpaceOnUse">
      <stop stop-color="#4D8DFF"/>
      <stop offset="1" stop-color="#1E5BC7"/>
    </linearGradient>
    <filter id="shadow" x="-30%" y="-30%" width="160%" height="180%">
      <feDropShadow dx="0" dy="16" stdDeviation="18" flood-color="#020B17" flood-opacity=".36"/>
    </filter>
  </defs>

  <path d="M36 410c136-76 264-95 386-58 141 44 284 26 462-74v164H36V410Z" fill="url(#road)"/>
  <path d="M66 414c128-62 245-75 353-40 142 46 280 31 423-46" stroke="#F2A51A" stroke-width="5" stroke-linecap="round" stroke-dasharray="18 20" opacity=".78"/>
  <path d="M74 442h766" stroke="#6D89AE" stroke-width="2" opacity=".22"/>

  <g filter="url(#shadow)">
    <path d="M145 181 337 92l191 89v230H145V181Z" fill="#0D213B" stroke="#31547E" stroke-width="2"/>
    <path d="M337 92v319" stroke="#31547E" stroke-width="2"/>
    <path d="m145 181 192 92 191-92" fill="url(#glass)" stroke="#31547E" stroke-width="2"/>
    <path d="M190 213h102v75H190zM383 213h100v75H383z" fill="#163457" stroke="#4073AD"/>
    <path d="M190 213v75M224 213v75M258 213v75M292 213v75M383 213v75M416 213v75M449 213v75M483 213v75" stroke="#5D90C8" stroke-opacity=".32"/>
    <path d="M190 320h102v91H190zM383 320h100v91H383z" fill="#122C4C" stroke="#31547E"/>
    <path d="M219 350h45M412 350h42" stroke="#F2A51A" stroke-width="5" stroke-linecap="round"/>
    <path d="M266 140h142" stroke="#E6F0FF" stroke-width="8" stroke-linecap="round" opacity=".86"/>
    <path d="M292 160h90" stroke="#5EA3FF" stroke-width="5" stroke-linecap="round" opacity=".68"/>
  </g>

  <g filter="url(#shadow)">
    <path d="M711 69c42 26 75 32 94 33v86c0 62-38 107-94 133-56-26-94-71-94-133v-86c19-1 52-7 94-33Z" fill="url(#shield)" stroke="#87B8FF" stroke-width="3"/>
    <path d="m666 192 29 29 63-72" stroke="white" stroke-width="15" stroke-linecap="round" stroke-linejoin="round"/>
    <circle cx="711" cy="188" r="98" stroke="#5EA3FF" stroke-width="2" stroke-dasharray="4 12" opacity=".34"/>
  </g>

  <g transform="translate(571 333)" filter="url(#shadow)">
    <path d="m64 0 64 111H0L64 0Z" fill="#F2A51A" stroke="#FFD47A" stroke-width="3"/>
    <path d="M57 39h14l-3 40H60l-3-40ZM64 88a7 7 0 1 1 0 14 7 7 0 0 1 0-14Z" fill="#10243E"/>
  </g>

  <g opacity=".54">
    <path d="M78 121h84M78 141h48M748 371h82M770 391h60" stroke="#74A9E9" stroke-width="3" stroke-linecap="round"/>
    <circle cx="90" cy="87" r="5" fill="#F2A51A"/>
    <circle cx="848" cy="104" r="5" fill="#5EA3FF"/>
    <circle cx="558" cy="104" r="3" fill="#8FB9ED"/>
  </g>
</svg>
